Patient4_TMGait_0pt7_01_right_27_EMG.mot
version=1
nRows=40
nColumns=33
inDegrees=no
endheader
time	1LAddLong	2LGlutMax	3LGlutMed	4LIliopsoas	5LSemiMemb	6LBicFemLong	7LRecFem	8LVastMed	9LVastLat	10LGasMed	11LTibAnt	12lTibPost	13LPeroneusLong	14LSol	15LExtDigLong	16LFlexDigLong	17RAddLong	18RGlutMax	19RGlutMed	20RIliopsoas	21RSemiMemb	22RBicFemLong	23RRecFem	24RVastMed	25RVastLat	26RGasMed	27RTibAnt	28RTibPost	29RPeroneusLong	30RSol	31RExtDigLong	32RFlexDigLong
30.952	-0.038605	-0.4097	0.37842	-0.002594	0.025482	0.030518	0.20279	0.01297	0.11032	-0.086517	0.01236	0.01358	-0.064697	0.21927	0.016022	0.022736	-0.14648	-0.37872	-0.49637	-0.010223	-0.3154	0.1767	-0.43961	0.096436	-0.26703	0.009155	0.20584	-0.057373	0.94711	0.017853	0.002594	-0.014038
30.953	-0.03067	-0.40253	0.35873	0.009308	0.029144	0.027161	0.20584	0.008698	0.10361	-0.030212	0.006104	0.01358	-0.015106	0.19928	0.015106	0.01358	-0.17639	-0.26535	-0.83603	0.12497	0.20233	0.16647	-0.57831	0.22339	-0.33402	0.009308	0.19913	0.002899	1.5948	-0.059204	0.004272	-0.016785
30.954	-0.023499	-0.42252	0.31799	0.006866	0.023804	0.025482	0.17502	0.005188	0.074921	0.029144	-0.005951	0.002899	-0.015869	0.15564	0.005341	0.011902	-0.063782	-0.24582	-0.58121	0.112	0.24963	-0.005188	-0.31265	0.26596	-0.43152	-0.009918	0.000458	-0.00351	1.1592	0.067291	0.003357	-0.014496
30.955	-0.031891	-0.44388	0.28763	-0.010681	0.025787	-0.009155	0.17303	0.005798	0.087891	-0.01709	0.014648	-0.0177	-0.055542	0.14893	0.003662	0.00824	0.01236	-0.2214	-0.22125	0.09079	0.057983	-0.19882	-0.22873	0.24841	-0.44647	-0.020752	-0.056458	-0.022888	-0.094147	0.23666	0.001221	-0.015564
30.956	-0.011902	-0.40115	0.28336	-0.004272	0.030518	-0.001831	0.1471	-0.002899	0.10773	-0.080872	0.002899	0.015259	-0.11719	0.12512	0.025024	0.00473	0.026855	-0.23895	0.10132	0.054016	-0.060425	-0.383	-0.18143	0.27802	-0.43076	-0.063324	0.032196	-0.023346	-1.5427	0.007019	-0.000305	-0.017242
30.957	-0.013123	-0.37567	0.26138	0.004578	0.040894	0.016022	0.10071	-0.010223	0.12619	-0.028992	-0.005951	0.004578	-0.15869	0.1004	-0.019073	0.004425	0.043488	-0.21225	0.030212	0.11444	-0.074615	-0.23239	-0.026398	0.26749	-0.41397	0.025177	-0.021057	0.011749	-0.68558	-0.28809	0.003357	-0.007172
30.958	-0.011597	-0.32166	0.27206	-0.011597	0.027771	0.027618	0.076904	-0.005798	0.12726	0.017242	-0.013275	0.004425	-0.16739	0.089874	-0.005798	0.001678	0.093536	-0.15289	0.46143	0.14771	-0.032349	0.031586	-0.031433	-0.023346	-0.30182	0.049438	-0.009308	-0.071106	-0.013275	-0.38315	0.002136	-0.013428
30.959	-0.012512	-0.26962	0.22537	-0.005341	0.022583	0.015564	0.11658	-0.003967	0.11749	-0.025482	-0.00061	0.001068	-0.15243	0.069122	0.005646	-0.000305	0.13138	-0.24155	-0.15762	0.099792	-0.063782	0.50888	0.009766	-0.36896	-0.0383	0.011902	-0.001831	-0.18448	0.89004	-0.41779	0.00473	-0.019226
30.96	-0.019836	-0.23895	0.21668	0.035553	0.015411	-0.007477	0.14267	-0.007172	0.12665	-0.007782	-0.022736	0.010529	-0.10025	0.016785	0.003357	-0.005798	0.090179	-0.23636	-0.34119	0.075684	0.23682	0.616	0.29221	-0.45273	-0.15152	0.018921	-0.015259	-0.10056	1.8268	-0.159	0.007477	-0.023956
30.961	-0.018616	-0.177	0.19165	0.050201	0.023499	-0.02655	0.15671	-0.006409	0.13062	0.073242	-0.019379	0.014038	-0.093231	-0.02121	0.007782	-0.009003	0.069885	-0.20401	-0.085907	0.02182	0.11383	0.43976	0.055695	-0.37445	-0.37613	0.031281	0.062561	0.10315	-0.46341	-0.457	0.00885	-0.010223
30.962	-0.018311	-0.18158	0.15198	0.052185	0.022888	-0.04776	0.19196	-0.011749	0.14542	0.1181	0.011139	0.011139	-0.07431	-0.067444	0.013428	-0.011444	-0.002594	-0.12375	-0.63538	0.11017	-0.003967	0.30456	-0.24094	-0.48477	-0.48263	0.017853	-0.072937	0.1297	-3.0275	-0.24582	0.012054	-0.004578
30.963	-0.013275	-0.12619	0.15778	0.020752	0.023193	-0.042419	0.2034	-0.008392	0.12711	0.079193	0.016327	0.005188	-0.091858	-0.056	0.007629	-0.007629	-0.020905	-0.13855	-0.26474	0.10193	0.09964	0.095978	-0.27802	-0.55161	-0.24979	-0.018005	-0.005188	0.037079	-1.4299	0.14893	0.001984	-0.007629
30.964	-0.012054	-0.12619	0.080261	0.00351	0.026398	-0.019989	0.24963	-0.006561	0.12405	0.17532	0.024261	0.001221	-0.091553	-0.028381	0.024109	0.005646	-0.002899	-0.081482	0.15488	0.030518	-0.084534	-0.12909	0.037231	-0.4718	0.20386	-0.031281	0.27054	-0.032196	-0.086365	0.13916	0.003967	-0.012665
30.965	-0.011749	-0.10178	-0.01297	-0.011597	0.027313	-0.009918	0.26428	-0.009155	0.15686	0.093384	0.014648	0.005341	-0.10117	0.001526	0.005188	-0.001373	-0.003052	-0.19592	0.55023	-0.009766	-0.24368	-0.20935	0.26215	-0.19211	0.52368	-0.019684	-0.040894	-0.047607	2.4365	0.20691	0.002594	-0.006714
30.966	-0.016632	-0.095673	-0.03952	-0.014648	0.02655	0.002289	0.27054	-0.006104	0.14282	0.007629	0.005341	0.009155	-0.13306	0.068512	-0.019989	0.002899	-0.068665	-0.33356	0.52643	-0.021973	0.12665	-0.33325	0.36957	0.20966	0.71915	0.019379	-0.17487	-0.051422	1.1601	0.12039	0.000153	-0.006866
30.967	-0.018768	-0.035248	-0.041199	-0.037231	0.025177	-0.00412	0.29053	-0.013275	0.13596	0.11887	-0.00885	0.023499	-0.13214	0.12161	-0.009613	0.004578	-0.090179	-0.32089	-0.25467	-0.045013	0.28168	-0.56519	0.49362	0.48737	0.59326	-0.005951	-0.1181	-0.063324	-0.45487	-0.11704	0.003357	-0.006409
30.968	-0.016785	-0.032959	-0.066986	-0.029907	0.023193	-0.013733	0.31632	-0.011444	0.11841	0.15823	-0.028534	0.02243	-0.13336	0.12146	0.055847	0.000153	-0.11139	-0.31937	-0.37155	-0.093384	0.36545	-0.71579	0.45044	0.49713	0.084839	-0.032959	0.097198	-0.011902	-0.61188	-0.068207	0.000916	-0.013885
30.969	-0.008698	-0.030212	-0.10498	0.010223	0.022278	-0.002747	0.35477	-0.012207	0.11841	0.049286	0.03006	0.012817	-0.080414	0.038605	0.092316	0.005341	-0.13596	-0.54214	-0.80063	-0.10895	0.33524	-0.58456	0.30807	0.62408	-0.21561	-0.050507	0.095215	0.048218	0.35355	0.084991	-0.001221	-0.023346
30.97	-0.016785	-0.024872	-0.12482	0.022583	0.017395	-0.002441	0.35828	-0.00824	0.11993	-0.019836	0.084381	0.002899	-0.074615	-0.01358	0.089874	-0.000763	-0.13016	-0.65399	-0.61752	-0.015411	0.10986	-0.56076	0.25589	0.5574	-0.35553	-0.046234	0.036163	-0.010529	1.1159	0.19928	0.003967	-0.010223
30.971	-0.017853	0.032806	-0.13092	0.0383	0.036316	-0.002899	0.41534	-0.009308	0.13199	-0.035858	0.15671	0.010071	-0.072479	-0.054779	0.11581	0.00412	-0.085907	-0.51926	-0.6694	0.033569	-0.054169	-0.42847	0.38711	0.43808	-0.30395	-0.007172	-0.11093	-0.019073	0.57526	-0.10117	0.004425	-0.009766
30.972	-0.00885	0.040741	-0.16174	0.04715	0.024109	-0.025787	0.40802	-0.007324	0.12665	-0.062561	0.093994	0.009308	-0.048065	0.008392	0.12589	-0.006866	-0.032349	-0.62698	-0.81161	-0.006866	0.014191	-0.31601	0.4921	0.41596	-0.082397	0.025482	-0.18082	-0.016327	0.56397	-0.20783	0.002136	-0.008698
30.973	-0.01236	0.000153	-0.215	0.050201	0.03006	-0.02121	0.48889	-0.016327	0.13977	-0.1297	-0.16388	0.008698	-0.085907	0.11353	-0.030518	0.005341	0.00885	-0.58716	-0.66284	-0.027313	0.11246	-0.1355	0.53451	0.26443	-0.022583	-0.014038	-0.002136	-0.028381	-2.1014	-0.10819	0.00061	-0.00412
30.974	-0.008392	-0.025635	-0.21622	0.056152	0.032654	-0.02533	0.4982	-0.012054	0.14236	-0.057678	-0.17731	0.00946	-0.10132	0.12756	-0.097809	0.002594	0.033722	-0.63004	-0.39658	-0.065613	0.21057	0.23041	0.5339	0.19852	-0.037842	-0.00946	0.30426	-0.079193	-0.13443	0.087433	0.007019	-0.00412
30.975	-0.010529	0.048218	-0.21591	0.048828	0.033875	-0.010986	0.51285	-0.013428	0.14297	0.10773	-0.093079	0.004578	-0.13184	0.066681	-0.048676	0.004883	0.046997	-0.66422	-0.38437	-0.11139	0.075989	0.53665	0.37766	0.064087	0.057526	-0.029755	0.0177	0.065765	1.0683	0.26184	0.002747	-0.020752
30.976	-0.00473	0.10605	-0.20142	0.047455	0.0383	-0.016174	0.51346	-0.005951	0.13992	0.2359	0.023956	0.002899	-0.1387	-0.019836	-0.26749	0.007782	0.050049	-0.66635	0.20081	-0.14618	0.029907	0.56702	0.23956	-0.034637	0.39017	-0.00824	-0.3212	0.059204	0.75058	0.054779	0	-0.022125
30.977	-0.015717	0.13336	-0.23438	0.049591	0.038757	-0.018768	0.49637	-0.006409	0.12604	0.36865	0.066071	0.007324	-0.13428	-0.067139	-0.24597	-0.001984	0.089569	-0.66025	-0.2356	-0.085144	0.069885	0.49698	0.3157	-0.074921	0.33035	-0.016785	-0.088806	-0.01236	-1.6933	0.19073	0.00061	-0.020142
30.978	-0.010834	0.15595	-0.22201	0.03952	0.040741	-0.019073	0.40146	-0.00473	0.10819	0.2005	0.19882	0.002441	-0.15427	-0.090942	-0.20447	0.005341	0.075226	-0.6778	-0.84076	-0.005341	0.029602	0.46875	0.26901	0.046997	0.28519	-0.014038	0.078888	-0.019073	-1.7671	-0.15091	0.002441	-0.016174
30.979	-0.021057	0.22095	-0.24689	0.001373	0.0383	-0.007935	0.26276	0.006409	0.080872	-0.17014	0.14908	-0.006714	-0.11948	-0.12512	-0.15289	0.002594	0.013275	-0.69839	-1.0004	0.024719	-0.2623	0.77438	0.2623	0.08194	0.2034	-0.005493	0.23865	-0.005035	-1.0298	0.000153	0.004272	-0.000763
30.98	-0.023041	0.23422	-0.23315	-0.019226	0.033112	0.004883	0.18204	0.002899	0.061493	-0.39871	0.050201	0.022125	-0.16846	-0.10895	0.011292	0.000916	-0.083923	-0.74753	-0.86472	0.036926	-0.6015	0.7103	0.34332	0.041046	0.11398	0.005951	0.16632	-0.000763	1.4067	-0.036621	-0.002441	-0.00473
30.981	-0.02655	0.31296	-0.22018	-0.014648	0.034027	0.01358	0.17334	-0.001831	0.061188	-0.3981	-0.11597	-0.000763	-0.093689	-0.082397	0.28656	0.006104	-0.13443	-0.75714	-0.95947	0.059814	-0.23758	0.20783	0.40085	0.043182	-0.10849	0.010376	0.070038	-0.005798	0.94879	-0.24612	0.002441	-0.012054
30.982	-0.028229	0.35416	-0.18555	0.009003	0.036316	0.013885	0.18326	0.010986	0.057831	-0.34347	-0.27908	0.013733	-0.041962	0.026398	-0.030975	0.012665	-0.11719	-0.53757	-0.64758	-0.042419	-0.010223	-0.015106	0.53558	0.29495	-0.38376	0.020752	0.02594	-0.006561	0.54947	-0.14893	0.001373	-0.012512
30.983	-0.018311	0.44205	-0.16892	0.004425	0.029297	-0.003357	0.27329	0.012054	0.041656	-0.3305	-0.15839	0.021515	-0.042114	0.009308	0.19592	0.002441	-0.13412	-0.33539	-0.10254	-0.1265	0.068512	-0.11856	0.55618	0.30609	-0.52719	0.014954	-0.036621	-0.012665	1.1119	-0.031128	0.002594	-0.016785
30.984	-0.022736	0.50354	-0.15091	-0.026855	0.03006	0.016174	0.36133	0.001373	0.043335	-0.17395	0.007782	0.002747	-0.05188	0.023651	0.11673	0.000763	-0.11841	-0.23804	0.30304	-0.056915	0.067139	-0.20401	0.4068	0.27374	-0.47577	0.005035	-0.13611	-0.010223	1.5068	-0.032654	0.000305	-0.018921
30.985	-0.014343	0.54367	-0.103	-0.023193	0.030365	0.010376	0.31662	-0.00412	0.028687	-0.054169	0.11017	0.000458	-0.10849	0.006256	0.00824	-0.010834	-0.087585	-0.18463	0.55512	-0.004883	0.007172	-0.13611	0.50705	0.17532	-0.35324	0.018768	0.080414	-0.005798	0.32898	-0.16846	-0.000305	-0.01709
30.986	-0.009918	0.58289	-0.12512	-0.009613	0.030975	0.018311	0.39581	-0.003204	0.026245	0.14145	0.1796	0.014343	-0.12512	-0.048218	-0.001526	-0.014343	-0.048218	-0.15915	-0.38162	-0.010529	0.038147	-0.13245	0.47211	0.064545	-0.25299	0.018463	0.056	-0.01236	-0.065765	-0.25009	0.001831	-0.018005
30.987	0.001373	0.62531	-0.12024	-0.00351	0.034027	0.00824	0.37933	-0.021973	-0.000305	0.17822	0.17654	-0.006409	-0.16373	-0.097046	0.082092	-0.002899	-0.026855	0.002594	-0.6308	-0.014496	0.22217	-0.32761	0.28809	0.015717	-0.1239	0.017242	-0.066833	-0.007019	0.99564	-0.24445	0.001984	-0.021667
30.988	-0.019989	0.63202	-0.18158	-0.010071	0.023041	-0.006256	0.29617	-0.024872	-0.046692	0.021515	0.070496	0.014038	-0.16602	-0.096893	-0.019989	-0.007019	-0.00824	0.01236	-0.39566	-0.1268	0.19501	-0.49301	0.1471	0.12894	-0.008392	0.017853	-0.16937	-0.015717	0.77698	0.11627	0.003052	-0.022736
30.989	-0.019684	0.62439	-0.16281	0.025177	0.03006	0.006866	0.20233	-0.02121	-0.067749	-0.16342	-0.061798	0.028992	-0.1561	-0.038605	0.13672	-0.010681	0.048828	0.071716	-0.21225	-0.14175	0.13062	-0.5809	0.1506	0.17029	-0.027161	-0.001221	0.035553	-0.015106	-1.5068	0.28229	0.003815	-0.035095
30.99	-0.023804	0.6279	-0.17044	0.040131	0.019836	0.000763	0.12314	-0.014496	-0.094147	-0.11002	-0.24582	0.020294	-0.094299	-0.006104	0.58044	0.00351	0.070648	0.024109	-0.63263	0.023956	0.1831	-0.49942	0.18845	-0.15945	-0.084381	-0.005035	0.233	-0.018311	-0.75943	0.33966	0.00412	-0.037537
30.991	-0.023956	0.70328	-0.15869	0.086517	0.011749	-0.006714	0.021515	0.022125	-0.11932	-0.15991	-0.1181	0.00824	-0.072632	0.00885	0.24689	0.006409	0.071869	0.11765	-0.62973	0.20187	0.19669	-0.76584	0.05661	-0.42984	-0.11734	-0.028992	0.10086	-0.010681	0.92773	0.13367	-0.001373	-0.032806
